<?xml version="1.0" encoding="UTF-8" standalone="no"?>
<!-- Created with Inkscape (http://www.inkscape.org/) -->

<svg
   xmlns:dc="http://purl.org/dc/elements/1.1/"
   xmlns:cc="http://creativecommons.org/ns#"
   xmlns:rdf="http://www.w3.org/1999/02/22-rdf-syntax-ns#"
   xmlns:svg="http://www.w3.org/2000/svg"
   xmlns="http://www.w3.org/2000/svg"
   xmlns:sodipodi="http://sodipodi.sourceforge.net/DTD/sodipodi-0.dtd"
   xmlns:inkscape="http://www.inkscape.org/namespaces/inkscape"
   width="105.83334mm"
   height="105.83334mm"
   viewBox="0 0 105.83334 105.83334"
   version="1.1"
   id="svg8"
   inkscape:version="0.92.2 (5c3e80d, 2017-08-06)"
   sodipodi:docname="logo.svg">
  <defs
     id="defs2" />
  <sodipodi:namedview
     id="base"
     pagecolor="#ffffff"
     bordercolor="#666666"
     borderopacity="1.0"
     inkscape:pageopacity="0.0"
     inkscape:pageshadow="2"
     inkscape:zoom="0.98994949"
     inkscape:cx="146.40521"
     inkscape:cy="79.57341"
     inkscape:document-units="mm"
     inkscape:current-layer="layer1"
     showgrid="false"
     inkscape:window-width="1436"
     inkscape:window-height="861"
     inkscape:window-x="0"
     inkscape:window-y="37"
     inkscape:window-maximized="0" />
  <metadata
     id="metadata5">
    <rdf:RDF>
      <cc:Work
         rdf:about="">
        <dc:format>image/svg+xml</dc:format>
        <dc:type
           rdf:resource="http://purl.org/dc/dcmitype/StillImage" />
        <dc:title></dc:title>
      </cc:Work>
    </rdf:RDF>
  </metadata>
  <g
     inkscape:label="Layer 1"
     inkscape:groupmode="layer"
     id="layer1"
     transform="translate(-49.330959,-11.255352)">
    <path
       style="fill:#ffffff;fill-opacity:1;stroke:none;stroke-width:0.26458332px;stroke-linecap:butt;stroke-linejoin:miter;stroke-opacity:1"
       d="M 81.52636,108.52836 V 84.337891 l -13.229167,-16.252975 2.83482,-20.221729 22.300596,-14.174104 6.425594,2.456844 0.188977,9.827381 -11.906237,12.284226 13.229157,12.473215 -0.11071,25.713844 3.07176,0.05011 0.28955,-25.485234 12.96257,-12.962573 -12.16076,-12.428032 0.13364,-7.216277 27.66239,9.621702 3.0736,21.782466 -9.75534,12.294399 0.26727,26.326043 z"
       id="path85"
       inkscape:connector-curvature="0"
       sodipodi:nodetypes="cccccccccccccccccccc" />
    <path
       id="path93"
       style="fill:#ffffff;fill-opacity:1;fill-rule:evenodd;stroke:none;stroke-width:0.26499999;stroke-linecap:butt;stroke-linejoin:miter;stroke-miterlimit:4;stroke-dasharray:none;stroke-opacity:1"
       d="m 103.82727,56.710551 -0.0438,-4.953431 4.36042,4.979675 z m -6.422818,-3e-6 h 4.810848 v -4.944485 z m -4.81085,1.469983 10.156238,-10.289879 10.0226,10.022607 -9.6217,10.156243 z"
       inkscape:connector-curvature="0"
       sodipodi:nodetypes="ccccccccccccc" />
    <path
       style="fill:#ffffff;fill-opacity:1;stroke:none;stroke-width:0.265;stroke-linecap:butt;stroke-linejoin:miter;stroke-opacity:1;stroke-miterlimit:4;stroke-dasharray:none"
       d="m 74.550502,19.536919 -3.2295,24.82999 20.977677,-13.607142 40.537941,13.796129 -3.38998,-25.029109 -10.83137,-0.01181 -0.14175,14.174106 -2.25116,-0.0057 1e-5,-14.110157 -12.35055,-0.01958 -0.0449,9.03278 h -2.26786 l -0.0725,-9.03802 -14.084847,-0.02244 -0.07576,9.473867 -2.114303,-0.03543 v -9.449404 z"
       id="path95"
       inkscape:connector-curvature="0"
       sodipodi:nodetypes="cccccccccccccccccc" />
    <path
       style="fill:none;fill-opacity:1;stroke-width:1.42857146"
       d="m 51.284412,291.15408 v -45.7966 L 26.217832,214.61094 1.1512517,183.86438 6.5749748,145.86218 11.998698,107.85998 53.322441,81.663631 C 76.0505,67.255639 95.346675,55.467282 96.202831,55.467282 c 0.856154,0 6.367609,1.846827 12.247689,4.10406 l 10.69104,4.10406 0.40034,18.109106 0.40035,18.109107 -21.828917,22.846985 c -12.005906,12.56584 -22.004602,23.34696 -22.219323,23.95804 -0.214722,0.61108 10.601528,11.47351 24.036111,24.13873 l 24.426519,23.02766 -0.15877,48.65827 -0.15877,48.65827 h 7.19408 7.19409 v -47.77784 -47.77786 l 23.57143,-23.18748 c 14.9187,-14.67569 23.57143,-24.23824 23.57143,-26.04991 0,-1.78196 -8.35822,-11.27985 -22.14286,-25.16211 L 141.28441,98.926697 v -13.31112 c 0,-12.092255 0.22892,-13.222815 2.5,-12.346749 1.375,0.530403 24.65482,8.664711 51.73293,18.076242 27.0781,9.41153 49.364,17.24295 49.5242,17.40315 0.1602,0.16021 2.91177,18.5255 6.11459,40.81176 l 5.8233,40.52047 -4.61632,5.9077 c -2.53897,3.24923 -10.97958,13.91993 -18.75693,23.71266 l -14.14061,17.80497 1.03911,48.98075 1.03912,48.98075 -43.34399,0.0727 c -23.83918,0.04 -62.14754,0.37378 -85.129683,0.7417 l -41.785715,0.66898 z"
       id="path940"
       inkscape:connector-curvature="0"
       transform="matrix(0.26458333,0,0,0.26458333,68.841635,21.130624)" />
  </g>
</svg>
